Coordinates
version=1
nRows=11
nColumns=40
inDegrees=yes

Units are S.I. units (second, meters, Newtons, ...)
Angles are in degrees.

endheader
time	pelvis_tilt	pelvis_list	pelvis_rotation	pelvis_tx	pelvis_ty	pelvis_tz	hip_flexion_r	hip_adduction_r	hip_rotation_r	knee_angle_r	knee_angle_r_beta	ankle_angle_r	subtalar_angle_r	mtp_angle_r	hip_flexion_l	hip_adduction_l	hip_rotation_l	knee_angle_l	knee_angle_l_beta	ankle_angle_l	subtalar_angle_l	mtp_angle_l	lumbar_extension	lumbar_bending	lumbar_rotation	arm_flex_r	arm_add_r	arm_rot_r	elbow_flex_r	pro_sup_r	wrist_flex_r	wrist_dev_r	arm_flex_l	arm_add_l	arm_rot_l	elbow_flex_l	pro_sup_l	wrist_flex_l	wrist_dev_l
      8.59750000	     -5.50572707	     -3.14438169	     -1.98260700	      1.00300085	      0.91404329	      0.49434172	     27.06425985	     -1.61871019	    -12.53883325	     26.15303075	     26.15303075	      6.04558601	     -4.73300604	     -1.18053543	      4.13712319	     -9.66623454	     -7.18266536	     36.27853032	     36.27853032	     14.40487509	    -11.61223262	     -8.44129403	    -12.56099941	      3.69282390	      1.41203001	    -13.68439446	    -11.80680303	     -6.58790555	     27.29579232	     46.78222341	      0.00000000	      0.00000000	      7.31426526	    -15.52993025	    -12.32009139	    105.93250168	     48.50203400	      0.00000000	      0.00000000
      8.60914286	     -5.68153282	     -3.17761116	     -1.77950379	      1.00253817	      0.91545194	      0.49739919	     26.43142736	     -1.45560077	    -12.96443312	     25.72599388	     25.72599388	      6.55885613	     -4.21901211	     -0.91672251	      6.23986408	     -9.98280369	     -5.76991997	     40.07414010	     40.07414010	     11.71438677	    -14.06139092	     -8.99063692	    -12.53571470	      3.54069331	      1.34955429	    -12.18094405	    -11.77453515	     -5.55668902	     27.95908391	     46.67111968	      0.00000000	      0.00000000	      6.39073852	    -14.61372259	    -12.62569459	    103.26808945	     48.47833079	      0.00000000	      0.00000000
      8.62078571	     -5.78785896	     -3.41231255	     -1.56600861	      1.00186655	      0.91674160	      0.50049544	     25.65601157	     -1.04004159	    -13.39379563	     25.13989646	     25.13989646	      6.89944043	     -3.87978370	     -0.89908092	      8.48556545	    -10.66629588	     -4.72212745	     44.13784730	     44.13784730	      9.59320425	    -15.16991031	     -8.75040404	    -12.63984045	      3.53996758	      1.39406033	    -10.61618698	    -11.67774415	     -5.29857690	     28.70396223	     46.62927327	      0.00000000	      0.00000000	      5.30674525	    -13.85517961	    -12.20478755	    101.74658816	     48.41829908	      0.00000000	      0.00000000
      8.63242857	     -5.98607159	     -3.49155465	     -1.30219866	      1.00092845	      0.91789123	      0.50316221	     25.01292952	     -0.85260591	    -13.90038443	     24.58530103	     24.58530103	      7.23996286	     -3.30948816	     -0.91833509	     11.00205481	    -10.92795451	     -3.31957971	     48.23063040	     48.23063040	      8.30691432	    -16.06376825	     -6.01075765	    -12.56001975	      3.47084211	      1.63401449	     -9.45732390	    -11.86233461	     -3.77031377	     30.17860241	     46.44131927	      0.00000000	      0.00000000	      5.01780931	    -12.82298275	    -12.16047646	     97.79731710	     48.35470622	      0.00000000	      0.00000000
      8.64407143	     -6.11440079	     -3.73990247	     -1.00736728	      0.99979861	      0.91887636	      0.50580381	     24.31331041	     -0.45652682	    -14.35079150	     24.02237395	     24.02237395	      7.48428421	     -3.08168194	     -0.92081494	     13.45293945	    -11.41652193	     -2.08290115	     51.99426821	     51.99426821	      6.56891881	    -16.68377774	     -5.32251848	    -12.67704461	      3.50641238	      1.56496780	     -7.66621131	    -11.87693508	     -3.61489886	     31.14854101	     46.40127215	      0.00000000	      0.00000000	      3.90197481	    -12.23479604	    -11.64341416	     96.04791657	     48.28364624	      0.00000000	      0.00000000
      8.65571429	     -6.33419402	     -3.84639390	     -0.67386294	      0.99845006	      0.91978506	      0.50806027	     23.71098509	     -0.25427910	    -14.84538712	     23.42872257	     23.42872257	      7.67498094	     -2.64152017	     -1.13479653	     16.22055942	    -11.52115759	     -0.66568861	     55.87724686	     55.87724686	      7.05840665	    -16.34880442	      0.51944644	    -12.56607612	      3.50384330	      2.07216557	     -6.80155302	    -12.30956073	     -1.99415921	     33.50284313	     46.17549741	      0.00000000	      0.00000000	      4.16868449	    -11.28516985	    -11.22235079	     90.85798855	     48.17710371	      0.00000000	      0.00000000
      8.66735714	     -6.47077908	     -4.06829760	     -0.31301935	      0.99698501	      0.92056492	      0.51034747	     23.05570144	      0.09471356	    -15.28036183	     22.88459952	     22.88459952	      7.92788360	     -2.44177145	     -1.15666342	     18.71298878	    -11.80996826	      0.52035426	     58.98230852	     58.98230852	      5.99613606	    -16.64632684	      1.23419058	    -12.63920495	      3.51570650	      1.73111639	     -4.77482994	    -12.38498195	     -1.87110011	     34.76791060	     46.12733364	      0.00000000	      0.00000000	      3.10020382	    -10.98884826	    -10.84915204	     88.25837758	     48.10106169	      0.00000000	      0.00000000
      8.67900000	     -6.61169197	     -4.29441820	      0.08758607	      0.99533365	      0.92133095	      0.51238782	     22.42505373	      0.42855378	    -15.72193487	     22.34111859	     22.34111859	      8.12035183	     -2.21151503	     -1.17755679	     21.22406708	    -12.02467352	      1.68390750	     61.71043994	     61.71043994	      5.32272716	    -16.75242839	      2.15953809	    -12.68786908	      3.62275232	      1.55241929	     -2.80919887	    -12.51233178	     -1.67361694	     36.07659723	     46.07295855	      0.00000000	      0.00000000	      2.44235962	    -10.47144612	    -10.66224088	     84.77530328	     48.02241828	      0.00000000	      0.00000000
      8.69064286	     -6.65453034	     -4.44776407	      0.45239030	      0.99364849	      0.92219043	      0.51428542	     21.71232441	      0.68907793	    -16.13489126	     21.83622008	     21.83622008	      8.37755770	     -1.96895799	     -1.32660413	     23.60085965	    -12.13858563	      2.63025014	     64.10453070	     64.10453070	      5.71192701	    -16.57696513	      4.67104436	    -12.80411042	      3.63184529	      2.14576345	     -1.41650004	    -13.00743744	     -0.87865857	     38.07325675	     45.94586156	      0.00000000	      0.00000000	      3.25681075	     -9.34783233	    -10.62236737	     78.46068952	     47.91189019	      0.00000000	      0.00000000
      8.70228571	     -6.80921613	     -4.72381853	      0.92098718	      0.99181992	      0.92282148	      0.51613716	     21.06543795	      1.09246177	    -16.58365510	     21.18254664	     21.18254664	      8.53505655	     -1.83831438	     -1.27909060	     26.08969665	    -12.35677407	      3.60314767	     65.97409043	     65.97409043	      5.48928940	    -16.66235113	      5.09977274	    -12.80976278	      3.69640595	      1.80150385	      0.61161632	    -13.11039581	     -0.82487542	     39.64759028	     45.89144738	      0.00000000	      0.00000000	      2.32423292	     -9.25601471	    -10.24465665	     75.33717745	     47.82448649	      0.00000000	      0.00000000
      8.71392857	     -6.81105631	     -4.83616288	      1.29562826	      0.99004617	      0.92368793	      0.51772544	     20.31698097	      1.32275697	    -16.92719477	     20.66315634	     20.66315634	      8.80430672	     -1.66094080	     -1.40156185	     28.25504406	    -12.45296258	      4.17110242	     67.33543078	     67.33543078	      5.80673099	    -16.77045125	      6.20061782	    -13.00749592	      3.70917468	      2.26544339	      2.30147662	    -13.67189930	     -0.28456760	     41.73006945	     45.78610014	      0.00000000	      0.00000000	      2.99796791	     -8.36071495	    -10.12273812	     69.18982792	     47.71614847	      0.00000000	      0.00000000
